<svg width="33" height="48" viewBox="0 0 33 48" fill="none" xmlns="http://www.w3.org/2000/svg">
<path d="M32.853 22.3473C31.9395 36.4091 21.1399 41.8288 9.02279 47.2174C5.38767 44.3159 25.5827 42.8151 25.5827 25.2488C25.5827 14.0573 15.4852 22.3473 13.4657 6.18174C0.540854 -4.59536 34.4686 -2.52283 32.853 22.3473Z" fill="black"/>
<circle cx="12.5198" cy="12.5198" r="12.5198" fill="black"/>
<path d="M32.853 22.3473C31.9395 36.4091 21.1399 41.8288 9.02279 47.2174C5.38767 44.3159 25.5827 42.8151 25.5827 25.2488C25.5827 14.0573 15.4852 22.3473 13.4657 6.18174C0.540854 -4.59536 34.4686 -2.52283 32.853 22.3473Z" fill="black"/>
<circle cx="12.5198" cy="12.5198" r="12.5198" fill="black"/>
</svg>
